<svg fill="#4E7DF1" height="512" viewBox="0 0 60 60" width="512" xmlns="http://www.w3.org/2000/svg"><g id="Page-1" fill="none" fill-rule="evenodd"><g id="017---Bills" fill="rgb(0,0,0)" fill-rule="nonzero" transform="translate(0 -1)"><path id="Shape" d="m49.8 47.7c.7803078.7767735 2.0416922.7767735 2.822 0l3.542-3.531c.7792582-.7839636.7792582-2.0500364 0-2.834l-4.164-4.169v-11.166c0-1.1045695-.8954305-2-2-2h-5c-1.1045695 0-2 .8954305-2 2v2.166l-3.192-3.192c4.0573733-3.9833946 5.3025423-10.0251036 3.1508218-15.28816444-2.1517204-5.26306084-7.2728997-8.70198751-12.9588218-8.70198751s-10.8071014 3.43892667-12.9588218 8.70198751c-2.1517205 5.26306084-.9065515 11.30476984 3.1508218 15.28816444l-16.36 16.359c-.77992105.7840802-.77992105 2.0509198 0 2.835l3.541 3.532c.7805395.7781018 2.0434605.7781018 2.824 0l.8-.8v12.1h-3.997c-.55228475 0-1 .4477153-1 1s.44771525 1 1 1h46c.5522847 0 1-.4477153 1-1s-.4477153-1-1-1h-4v-12.1zm-4.8-21.7h5v9.166l-5-5zm9.754 16.752-3.537 3.531-2.506-2.505-.011-.008-15.228-15.223c1.7314414-.4445515 3.3611007-1.2183001 4.8-2.279zm-36.754-27.752c0-6.627417 5.372583-12 12-12s12 5.372583 12 12-5.372583 12-12 12c-6.624447-.0071648-11.9928352-5.375553-12-12zm-9.214 31.282-3.539-3.535 16.479-16.479c1.4388478 1.0607859 3.0685245 1.8345428 4.8 2.279l-15.226 15.218-.019.019zm17.214 12.718v-4c0-2.209139 1.790861-4 4-4s4 1.790861 4 4v4zm21 0h-11v-4c0-3.3137085-2.6862915-6-6-6s-6 2.6862915-6 6v4h-11v-14.1l15.957-15.953c.346.026.691.053 1.043.053s.7-.027 1.043-.053l15.957 15.953z"/><path id="Shape" d="m1 61h2c.55228475 0 1-.4477153 1-1s-.44771525-1-1-1h-2c-.55228475 0-1 .4477153-1 1s.44771525 1 1 1z"/><path id="Shape" d="m57 61h2c.5522847 0 1-.4477153 1-1s-.4477153-1-1-1h-2c-.5522847 0-1 .4477153-1 1s.4477153 1 1 1z"/><path id="Shape" d="m27 18.5c0-.5522847-.4477153-1-1-1s-1 .4477153-1 1c.0965423 2.2415987 1.7783513 4.0953727 4 4.409v.091c0 .5522847.4477153 1 1 1s1-.4477153 1-1v-.091c2.2216487-.3136273 3.9034577-2.1674013 4-4.409-.0965423-2.2415987-1.7783513-4.0953727-4-4.409v-4.937c1.1128409.25246244 1.9267959 1.2072317 2 2.346 0 .5522847.4477153 1 1 1s1-.4477153 1-1c-.0965423-2.24159872-1.7783513-4.09537268-4-4.409v-.091c0-.55228475-.4477153-1-1-1s-1 .44771525-1 1v.091c-2.2216487.31362732-3.9034577 2.16740128-4 4.409.0965423 2.2415987 1.7783513 4.0953727 4 4.409v4.937c-1.1128409-.2524624-1.9267959-1.2072317-2-2.346zm6 0c-.0732041 1.1387683-.8871591 2.0935376-2 2.346v-4.692c1.1128409.2524624 1.9267959 1.2072317 2 2.346zm-6-7c.0732041-1.1387683.8871591-2.09353756 2-2.346v4.692c-1.1128409-.2524624-1.9267959-1.2072317-2-2.346z"/><path id="Shape" d="m25 35c-.5522847 0-1 .4477153-1 1v10c0 .5522847.4477153 1 1 1h10c.5522847 0 1-.4477153 1-1v-10c0-.5522847-.4477153-1-1-1zm9 5h-3v-3h3zm-5-3v3h-3v-3zm-3 5h3v3h-3zm5 3v-3h3v3z"/><circle id="Oval" cx="32" cy="56" r="1"/><path id="Shape" d="m9 15c0 .5522847.44771525 1 1 1h3c.5522847 0 1-.4477153 1-1s-.4477153-1-1-1h-3c-.55228475 0-1 .4477153-1 1z"/><path id="Shape" d="m46 15c0 .5522847.4477153 1 1 1h3c.5522847 0 1-.4477153 1-1s-.4477153-1-1-1h-3c-.5522847 0-1 .4477153-1 1z"/><path id="Shape" d="m14.777 22.634-2.6 1.5c-.3119508.1773616-.5049532.5082732-.5057421.8671183s.1907567.6906021.5019247.8693336c.3111679.1787314.694247.1770325 1.0038174-.0044519l2.6-1.5c.3119508-.1773616.5049532-.5082732.5057421-.8671183s-.1907567-.6906021-.5019247-.8693336c-.3111679-.1787314-.694247-.1770325-1.0038174.0044519z"/><path id="Shape" d="m46.82 4.134-2.6 1.5c-.3119508.17736158-.5049532.50827321-.5057421.8671183s.1907567.69060211.5019247.86933356c.3111679.17873145.694247.17703252 1.0038174-.00445186l2.6-1.5c.3119508-.17736158.5049532-.50827321.5057421-.8671183s-.1907567-.69060211-.5019247-.86933356c-.3111679-.17873145-.694247-.17703252-1.0038174.00445186z"/><path id="Shape" d="m15.777 5.634-2.6-1.5c-.3095704-.18148438-.6926495-.18318331-1.0038174-.00445186-.311168.17873145-.5027136.51048847-.5019247.86933356s.1937913.68975672.5057421.8671183l2.6 1.5c.3095704.18148438.6926495.18318331 1.0038174.00445186.311168-.17873145.5027136-.51048847.5019247-.86933356s-.1937913-.68975672-.5057421-.8671183z"/></g></g></svg>