<?xml version="1.0"?>
<svg xmlns="http://www.w3.org/2000/svg" fill="#4E7DF1" viewBox="0 0 64 64" width="512" height="512"><g id="Outlines"><g><path d="M61,14H60V11a1,1,0,0,0-1-1H46.5L40.8,2.4A1,1,0,0,0,40,2H24a1,1,0,0,0-.8.4l-6,8a1,1,0,0,0,.048,1.259L22.8,18H3a1,1,0,0,0,0,2H4V49a1,1,0,0,0,2,0V34H22V52H5a1,1,0,0,0-1,1v8a1,1,0,0,0,1,1H59a1,1,0,0,0,1-1V45a1,1,0,0,0-2,0V60H42V54H55a1,1,0,0,0,0-2H42V34H58v7a1,1,0,0,0,2,0V20h1a1,1,0,0,0,1-1V15A1,1,0,0,0,61,14ZM34.866,22.206,38.693,12h5.1ZM20.2,12h5.1l3.827,10.206ZM40.461,5.281,44,10H39.281ZM27.443,12h9.114L32,24.152ZM28,10l4-5.333L36,10Zm9.539-1.281L34,4h4.72Zm-11.078,0L25.281,4H30ZM24.719,10H20l3.54-4.72ZM24,34h4.757l-2.464,2.464a1,1,0,1,0,1.414,1.414L31.585,34h2.83L24,44.415ZM6,54H22v6H6Zm23.085,6,8.622-8.622a1,1,0,0,0-1.414-1.414L26.257,60H24V47.243L37.243,34H40V51.915l-4.378,4.378a1,1,0,1,0,1.414,1.414L40,54.743V60ZM58,32H6V20H24.546l1.75,2H12a1,1,0,0,0-1,1v6a1,1,0,0,0,1,1H52a1,1,0,0,0,1-1V23a1,1,0,0,0-1-1H40.5a1,1,0,0,0,0,2H51v4H13V24H28.046l3.2,3.659a1,1,0,0,0,1.5,0L39.454,20H58Zm2-14H41.2l5.25-6H58v2H46.5a1,1,0,0,0,0,2H60Z"/><path d="M3,16H17.5a1,1,0,0,0,0-2H6V12h8a1,1,0,0,0,0-2H5a1,1,0,0,0-1,1v3H3a1,1,0,0,0,0,2Z"/><path d="M46.6,42.67a1,1,0,0,0-1.286.588,5,5,0,1,0,7.336-2.493l1.058-1.058a1,1,0,0,0,.188-1.154l-1-2A1,1,0,0,0,52,36H48a1,1,0,0,0-.9.553l-1,2a1,1,0,0,0,.188,1.154l3,3a1,1,0,0,0,1.414,0l.463-.463a2.995,2.995,0,1,1-3.983,1.713A1,1,0,0,0,46.6,42.67ZM48.217,38.8l.4-.8h2.764l.4.8L50,40.586Z"/><path d="M11,44a1,1,0,0,0,0,2,.931.931,0,0,0,.2-.04,3,3,0,1,0,5.606,0A.931.931,0,0,0,17,46a1,1,0,0,0,0-2,.987.987,0,0,0-.962.812,2.964,2.964,0,0,0-4.076,0A.987.987,0,0,0,11,44Zm3,2a1,1,0,1,1-1,1A1,1,0,0,1,14,46Z"/><circle cx="18" cy="43" r="1"/><circle cx="18" cy="41" r="1"/><circle cx="17" cy="39" r="1"/><circle cx="15" cy="38" r="1"/><circle cx="10" cy="43" r="1"/><circle cx="10" cy="41" r="1"/><circle cx="11" cy="39" r="1"/><circle cx="13" cy="38" r="1"/><path d="M38,42a1,1,0,0,0-2,0v4a1,1,0,0,0,2,0Z"/></g></g></svg>
