<svg fill="#4E7DF1" id="Capa_1" enable-background="new 0 0 512 512" height="512" viewBox="0 0 512 512" width="512" xmlns="http://www.w3.org/2000/svg"><g><path d="m57.057 357.735c2.655 2.114 5.949 3.265 9.343 3.265h114.6v106c0 24.813 20.187 45 45 45s45-20.187 45-45v-16h151v16c0 24.813 20.187 45 45 45s45-20.187 45-45v-121c0-24.813-20.187-45-45-45s-45 20.187-45 45v15h-151v-15c0-4.387-.643-8.625-1.819-12.637 20.533-26.093 31.819-58.788 31.819-92.363 0-48.208-22.511-91.93-60-120.111v-29.889c0-49.915-40.422-91-90-91-49.55 0-90 41.051-90 91v29.629c-36.994 27.366-61 71.135-61 120.371 0 45.318 20.796 87.866 57.057 116.735zm183.943 109.265c0 8.271-6.729 15-15 15s-15-6.729-15-15v-121c0-8.271 6.729-15 15-15s15 6.729 15 15zm211-121c0-8.271 6.729-15 15-15s15 6.729 15 15v121c0 8.271-6.729 15-15 15s-15-6.729-15-15zm-30 45v30h-151v-30zm-331-300c0-33.636 26.916-61 60-61s60 27.364 60 61v12.4c-18.667-8.124-38.997-12.4-60-12.4-21.31 0-41.599 4.417-60 12.364zm60 30c66.168 0 120 53.832 120 120 0 24.485-7.079 47.531-20.562 67.244-7.043-4.575-15.432-7.244-24.438-7.244-19.555 0-36.228 12.542-42.42 30h-111.773c-26.636-23.014-41.807-55.536-41.807-90 0-65.867 53.984-120 121-120z"/><path d="m151 301c33.084 0 60-26.916 60-60s-26.916-60-60-60-60 26.916-60 60 26.916 60 60 60zm0-90c16.542 0 30 13.458 30 30s-13.458 30-30 30-30-13.458-30-30 13.458-30 30-30z"/></g></svg>