<svg fill="#4E7DF1" id="Layer_5" enable-background="new 0 0 64 64" height="512" viewBox="0 0 64 64" width="512" xmlns="http://www.w3.org/2000/svg" xmlns:xlink="http://www.w3.org/1999/xlink"><linearGradient id="SVGID_1_" gradientUnits="userSpaceOnUse" x1="32" x2="32" y1="63" y2="1"><stop offset="0" stop-color="#9f2fff"/><stop offset="1" stop-color="#0bb1d3"/></linearGradient><path d="m5 63h8v-4h38v4h8v-14h4v-14h-11v-8c0-1.103-.897-2-2-2h-1v-3.491c0-.444.298-.84.726-.962l11.099-3.171c1.28-.366 2.175-1.553 2.175-2.885v-5.491c0-1.654-1.346-3-3-3h-3v-2c0-1.654-1.346-3-3-3h-18c-1.654 0-3 1.346-3 3v6c0 1.654 1.346 3 3 3h18c1.654 0 3-1.346 3-3v-2h3c.551 0 1 .449 1 1v5.491c0 .444-.298.84-.726.962l-11.099 3.171c-1.28.366-2.175 1.553-2.175 2.885v3.491h-1c-1.103 0-2 .897-2 2v8h-25v-20.184c1.161-.414 2-1.514 2-2.816v-1.81c0-.656.534-1.19 1.19-1.19.284 0 .559.102.774.287l8.036 6.887v-4.174c0-6.065-4.935-11-11-11h-8.764c-1.143 0-2.171.635-2.683 1.658l-.171.342h-.764l-.171-.342c-.511-1.023-1.54-1.658-2.683-1.658h-.764c-1.654 0-3 1.346-3 3v6c0 1.654 1.346 3 3 3h.764c1.143 0 2.171-.635 2.683-1.658l.171-.342h1.382v1c0 1.302.839 2.402 2 2.816v20.184h-10v14h4zm50-53c0 .551-.449 1-1 1h-18c-.551 0-1-.449-1-1v-6c0-.551.449-1 1-1h18c.551 0 1 .449 1 1zm-48 51v-12h4v12zm14.586-24 10 10h-9.172l-10-10zm28 0 10 10h-5.172l-10-10zm-36.586 12h38v4h-38zm38.586-2h-9.172l-10-10h9.172zm-12 0h-5.172l-10-10h5.172zm-20 0h-5.172l-10-10h5.172zm-6.586 10v-2h38v2zm44 4h-4v-12h4zm4-15.414-8.586-8.586h8.586zm-15-18.586h4v8h-4zm-39.618-18-.724 1.447c-.17.341-.513.553-.894.553h-.764c-.551 0-1-.449-1-1v-6c0-.551.449-1 1-1h.764c.381 0 .724.212.894.553l.724 1.447h3.236l.724-1.447c.17-.341.513-.553.894-.553h8.764c4.904 0 8.904 3.942 8.999 8.824l-4.732-4.056c-.579-.495-1.316-.768-2.077-.768-1.759 0-3.19 1.431-3.19 3.19v1.81c0 .551-.449 1-1 1h-6c-.551 0-1-.449-1-1v-3zm6.618 6h4v20h-4zm-10 23.414 8.586 8.586h-8.586z" fill="url(#SVGID_1_)"/></svg>