<?xml version="1.0" encoding="iso-8859-1"?>
<!-- Generator: Adobe Illustrator 19.0.0, SVG Export Plug-In . SVG Version: 6.00 Build 0)  -->
<svg version="1.1" id="Capa_1" xmlns="http://www.w3.org/2000/svg" xmlns:xlink="http://www.w3.org/1999/xlink" x="0px" y="0px"
	 viewBox="0 0 512 512" style="enable-background:new 0 0 512 512;" xml:space="preserve" fill="#4E7DF1">
<g>
	<g>
		<path d="M364.997,0H138.444L83.735,103.398v25.538c0,21.306,9.948,40.321,25.432,52.68V512h296.666V178.962
			c13.675-12.344,22.287-30.196,22.287-50.026l0.145-26.057L364.997,0z M348.227,30l46.917,76.29h-71.819h-1.252L308.479,30H348.227
			z M236.696,30h41.31l13.594,76.29h-70.98L236.696,30z M292.599,136.29c-3.425,17.112-18.566,30.043-36.671,30.043
			c-18.105,0-33.246-12.931-36.672-30.043H292.599z M156.511,30h49.526l-16.076,76.29h-1.431h-72.385L156.511,30z M114.461,136.29
			h73.343c-3.425,17.112-18.566,30.043-36.671,30.043C133.028,166.333,117.887,153.402,114.461,136.29z M375.833,482H139.167
			v-40.333H242.5v17h30v-17h103.333V482z M375.834,411.667H139.167V195.248c3.887,0.7,7.881,1.085,11.966,1.085
			c21.142,0,40.031-9.793,52.398-25.072c12.366,15.279,31.256,25.072,52.397,25.072c21.142,0,40.031-9.793,52.397-25.072
			c12.366,15.279,31.256,25.072,52.398,25.072c5.196,0,10.249-0.611,15.111-1.729V411.667z M360.723,166.333
			c-18.105,0-33.246-12.931-36.671-30.043h73.343C393.969,153.402,378.828,166.333,360.723,166.333z"/>
	</g>
</g>
<g>
	<g>
		<path d="M323.847,332.338l15.667-94H206.47l-7.637-24.759l-28.667,8.842l29.973,97.177v62.735h123.334v-30H230.14v-19.995H323.847
			z M226.21,302.338l-10.487-34h88.376l-5.666,34H226.21z"/>
	</g>
</g>
<g>
</g>
<g>
</g>
<g>
</g>
<g>
</g>
<g>
</g>
<g>
</g>
<g>
</g>
<g>
</g>
<g>
</g>
<g>
</g>
<g>
</g>
<g>
</g>
<g>
</g>
<g>
</g>
<g>
</g>
</svg>
