<?xml version="1.0" encoding="iso-8859-1"?>
<!-- Generator: Adobe Illustrator 19.0.0, SVG Export Plug-In . SVG Version: 6.00 Build 0)  -->
<svg version="1.1" id="Capa_1" xmlns="http://www.w3.org/2000/svg" xmlns:xlink="http://www.w3.org/1999/xlink" x="0px" y="0px"
	fill="#4E7DF1" viewBox="0 0 512.102 512.102" style="enable-background:new 0 0 512.102 512.102;" xml:space="preserve">
<g>
	<g>
		<path d="M245.139,328.197H69.818c-4.655,0-7.758,3.103-7.758,7.758s3.103,7.758,7.758,7.758h175.321
			c4.655,0,7.758-3.103,7.758-7.758S249.794,328.197,245.139,328.197z"/>
	</g>
</g>
<g>
	<g>
		<path d="M245.139,379.397H69.818c-4.655,0-7.758,3.103-7.758,7.758c0,4.655,3.103,7.758,7.758,7.758h175.321
			c4.655,0,7.758-3.103,7.758-7.758S249.794,379.397,245.139,379.397z"/>
	</g>
</g>
<g>
	<g>
		<path d="M245.139,430.597H69.818c-4.655,0-7.758,3.103-7.758,7.758s3.103,7.758,7.758,7.758h175.321
			c4.655,0,7.758-3.103,7.758-7.758S249.794,430.597,245.139,430.597z"/>
	</g>
</g>
<g>
	<g>
		<path d="M512,471.712l-10.085-183.855c0-3.879-3.879-6.982-7.758-6.982h-30.255v-18.618c0-45.77-32.582-82.23-73.697-82.23
			c-4.655,0-9.309,0.776-13.964,1.552v-13.964c0-4.655-3.103-7.758-7.758-7.758h-69.818v-34.133
			c0-69.818-49.648-125.673-110.158-125.673S77.576,55.906,77.576,124.948v34.133H7.758c-4.655,0-7.758,3.103-7.758,7.758v285.479
			c0,32.582,27.151,59.733,60.509,59.733c379.345,0,98.521,0,415.806,0C497.261,512.051,513.552,493.433,512,471.712z
			 M456.145,315.009c3.879,0,6.982,3.103,6.982,6.206c0,3.879-3.103,6.206-6.206,6.206c-3.879,0-6.206-3.103-6.206-6.206
			C449.939,318.112,453.042,315.009,456.145,315.009z M390.982,194.766c31.806,0,57.406,30.255,57.406,66.715V280.1H332.8v-18.618
			C332.8,224.245,359.176,194.766,390.982,194.766z M305.648,218.039c0,7.758-6.206,14.739-14.739,14.739
			c-8.533,0-14.739-6.206-14.739-14.739c0-7.758,6.982-14.739,14.739-14.739C299.442,203.3,305.648,209.506,305.648,218.039z
			 M93.091,124.948c0-60.509,42.667-109.382,95.418-109.382s95.418,48.873,95.418,109.382v34.133H93.091V124.948z M85.333,203.3
			c8.533,0,14.739,6.206,14.739,14.739c0,7.758-6.206,14.739-14.739,14.739s-14.739-6.206-14.739-14.739
			C70.594,210.281,77.576,203.3,85.333,203.3z M279.273,287.081L269.188,470.16c-0.776,9.309,2.327,17.842,6.982,24.824H60.509
			c-24.824,1.551-44.994-18.618-44.994-42.667V174.597h62.061v14.739c-13.188,3.103-22.497,14.739-22.497,28.703
			c0,16.291,13.188,30.255,30.255,30.255c16.291,0,30.255-13.188,30.255-30.255c0-13.964-9.309-25.6-22.497-28.703v-14.739h190.061
			v14.739c-13.188,3.103-22.497,14.739-22.497,28.703c0,16.291,13.188,30.255,30.255,30.255c16.291,0,30.255-13.188,30.255-30.255
			c0-13.964-9.309-25.6-22.497-28.703v-14.739h62.061v11.636c-25.6,13.188-43.442,41.891-43.442,75.248V280.1H287.03
			C283.152,280.1,279.273,283.203,279.273,287.081z M332.024,321.215c0,3.879-3.103,6.206-6.206,6.206
			c-3.879,0-6.206-3.103-6.206-6.206c-1.552-3.103,1.551-6.206,5.43-6.206S332.024,318.112,332.024,321.215z M476.315,496.536
			H304.873c-12.412,0-20.945-11.636-20.17-24.048l9.309-176.097h22.497v4.655c-8.533,3.103-13.964,10.861-13.964,20.17
			c0,12.412,10.085,21.721,21.721,21.721c12.412,0,21.721-10.085,21.721-21.721c0-9.309-6.206-17.067-13.964-20.17v-4.655h115.588
			v4.655c-8.533,3.103-13.964,10.861-13.964,20.17c0,12.412,10.085,21.721,21.721,21.721c12.412,0,21.721-10.085,21.721-21.721
			c0-9.309-6.206-17.067-13.964-20.17v-4.655h22.497l10.861,176.097C497.261,485.675,487.952,496.536,476.315,496.536z"/>
	</g>
</g>
<g>
</g>
<g>
</g>
<g>
</g>
<g>
</g>
<g>
</g>
<g>
</g>
<g>
</g>
<g>
</g>
<g>
</g>
<g>
</g>
<g>
</g>
<g>
</g>
<g>
</g>
<g>
</g>
<g>
</g>
</svg>
