<svg id="Capa_1" enable-background="new 0 0 512 512" height="512" viewBox="0 0 512 512" width="512" xmlns="http://www.w3.org/2000/svg"><g><path d="m512 280c0-41.662-29.55-75.871-66.858-78.776-4.425-14.913-16.381-26.614-31.446-30.673-10.046-82.583-77.106-145.551-157.696-145.551s-147.65 62.968-157.695 145.551c-15.065 4.059-27.022 15.759-31.446 30.673-1.296.101-2.582.24-3.858.416v-97.64c0-8.284-6.716-15-15-15s-15 6.716-15 15v109.646c-19.837 14.084-33.001 38.556-33.001 66.354 0 41.662 29.55 75.871 66.858 78.776 4.411 14.866 16.305 26.537 31.303 30.632 6.39 37.194 38.85 65.592 77.839 65.592h3.469c6.276 18.58 23.86 32 44.531 32h64c25.916 0 47-21.084 47-47s-21.084-47-47-47h-64c-20.671 0-38.255 13.42-44.531 32h-3.469c-22.683 0-41.81-15.496-47.366-36.456 17.648-6.088 30.366-22.854 30.366-42.544v-132c0-19.759-12.806-36.572-30.55-42.606 9.37-66.256 63.146-116.394 127.55-116.394s118.18 50.138 127.55 116.394c-17.744 6.034-30.55 22.847-30.55 42.606v132c0 24.813 20.187 45 45 45h4c20.375 0 37.621-13.616 43.142-32.224 37.308-2.905 66.858-37.114 66.858-78.776zm-288 143h64c9.374 0 17 7.626 17 17s-7.626 17-17 17h-64c-9.374 0-17-7.626-17-17s7.626-17 17-17zm-194-143c0-23.787 15.425-44.268 35-48.287v96.573c-19.575-4.018-35-24.499-35-48.286zm99 66c0 8.271-6.729 15-15 15h-4c-8.271 0-15-6.729-15-15 0-48.134 0-87.504 0-132 0-8.271 6.729-15 15-15h4c8.271 0 15 6.729 15 15zm288 0c0 8.271-6.729 15-15 15h-4c-8.271 0-15-6.729-15-15v-132c0-8.271 6.729-15 15-15h4c8.271 0 15 6.729 15 15zm30-17.713v-96.573c19.575 4.019 35 24.5 35 48.287s-15.425 44.267-35 48.286z" fill="#4E7DF1"/></g></svg>