<svg id="Capa_1" enable-background="new 0 0 512 512" height="512" viewBox="0 0 512 512" width="512" xmlns="http://www.w3.org/2000/svg"><g fill="#502dd3"><path id="Shape_11_" d="m233.442 258.414c0 17.708-12.448 31.105-28.868 31.105-7.938 0-13.531-3.039-17.674-7.509v30.57h-16.062v-83.305h15.514v6.616c3.788-4.828 9.742-8.044 17.871-8.044 16.949-.719 29.219 12.69 29.219 30.567zm-46.907 0c0 9.296 6.135 16.268 15.335 16.268 9.381 0 15.335-7.33 15.335-16.268 0-9.116-5.954-16.268-15.335-16.268-9.202.006-15.337 6.791-15.337 16.268z"/><path id="Shape_10_" d="m261.045 209.43c0 6.079-4.87 10.368-10.644 10.191-5.593-.179-9.923-5.363-9.742-10.897s4.517-9.296 10.284-9.296c5.595-.009 10.102 4.281 10.102 10.002zm-2.347 78.301h-16.056v-58.993h16.056z"/><path id="Shape_9_" d="m287.925 249.653 17.14-20.916h19.666l-23.454 27.889 23.815 31.105h-19.665l-17.14-23.785v23.785h-16.056v-87.775h16.056z"/><path id="Shape_8_" d="m373.443 242.86h-21.464v21.451c0 7.33 3.788 10.191 9.022 10.191 3.788 0 7.938-1.788 11.194-3.754l5.954 12.335c-5.051 3.575-11.194 6.256-19.665 6.256-14.793 0-22.191-8.402-22.191-23.598v-22.703h-16.598l11.547-14.123h5.027v-17.513h16.056v17.513h21.468l-.361 13.944h.011z"/><path id="Shape_4_" d="m441.82 287.731h-15.514v-6.616c-3.788 4.828-9.742 8.044-17.87 8.044-16.417 0-28.868-13.407-28.868-31.105s12.448-31.105 28.868-31.105c8.118 0 13.711 3.218 17.87 8.044v-6.616h15.514zm-46.006-29.317c0 9.116 5.954 16.268 15.335 16.268 9.2 0 15.335-6.793 15.335-16.268s-6.135-16.268-15.335-16.268c-9.381.006-15.335 7.149-15.335 16.268z"/><path id="Shape_5_" d="m512 258.414c0 17.708-12.448 31.105-28.868 31.105-8.118 0-14.073-3.219-17.871-8.044v6.616h-15.514v-87.775h16.056v34.857c3.788-4.476 9.381-7.865 17.321-7.865 16.428-.18 28.876 13.229 28.876 31.106zm-47.088 0c0 9.296 6.135 16.268 15.335 16.268 9.381 0 15.335-7.33 15.335-16.268 0-9.116-5.954-16.268-15.335-16.268-9.019.006-15.335 6.791-15.335 16.268z"/><path id="Shape_6_" d="m109.703 249.51c-.009-5.293-.98-10.541-2.865-15.493-6.316-16.735-22.503-28.708-41.573-28.809-2.763-.016-5.986.29-9.754 1.084-20.15 4.246-35.258 21.971-35.258 43.218 0 5.042.297 11.777 1.536 16.556.626 2.411 2.027 3.339 3.91 4.616 1.221.747 2.457 1.477 3.731 2.156 10.92 5.85 23.142 8.904 35.556 8.885.196 0 .379-.019.571-.019 7.99-.057 15.918-1.387 23.481-3.94 5.33-1.786 10.439-4.163 15.231-7.085 2.47-1.724 3.604-2.872 4.501-5.838 0-.021.01-.049.016-.07.117-.323.216-.652.295-.987.46-2.092.571-4.178.601-6.301.09-2.842.021-5.73.021-7.973zm-67.218-28.251c4.658-4.548 11.614-5.133 15.536-1.31 3.922 3.824 3.323 10.609-1.335 15.156-4.658 4.548-11.614 5.133-15.536 1.31s-3.321-10.608 1.335-15.156zm60.907 37.795c-.271 2.14-1.436 4.559-3.354 5.552-10.324 5.345-21.941 9.251-34.262 9.251-12.272 0-23.397-3.287-33.807-9.004-1.999-1.097-3.319-3.166-3.602-5.437-.196-1.557-.196-4.853-.196-6.468-.023-.681.213-1.346.662-1.862 1.434-1.625 13.866-6.032 13.866-6.032 1.427-.628 3.081-.469 4.36.418l11.659 8.066c2.341 1.619 4.32 1.409 6.284-.665l18.312-17.725c1.681-1.784 4.391-2.74 6.535-1.312l9.389 6.344c1.571.713 2.746 2.075 3.213 3.724.711 2.479.76 4.051.939 6.698.169 2.539.306 6.039.002 8.452z"/><path id="Shape_7_" d="m124.554 226.78c-.501-.632-1.09-1.191-1.75-1.658-2.016-1.379-4.424-2.084-6.873-2.012-9.854-19.031-28.807-30.835-50.22-31.068h-.642c-21.405.234-40.364 12.037-50.22 31.074-2.449-.072-4.857.633-6.873 2.012-.661.465-1.252 1.021-1.754 1.652-5.144 6.367-6.222 15.178-6.222 21.435 0 6.089.283 12.475 3.682 17.78l.155.218c1.708 2.176 4.18 3.635 6.924 4.086 1.094 4.163 2.691 8.181 4.756 11.965 0 0-.016 0-.022.016-2.056 2.092-3.978 4.309-5.754 6.639-.039.066-.982 1.635 0 3.09 11.308 16.82 32.964 27.741 55.326 27.949h.648c22.352-.208 44.009-11.129 55.32-27.947.982-1.457.039-3.026 0-3.09-1.776-2.33-3.698-4.547-5.754-6.639 0 0-.016 0-.022-.016 2.066-3.784 3.662-7.802 4.756-11.965 2.744-.451 5.217-1.91 6.924-4.086l.155-.218c3.399-5.304 3.682-11.693 3.682-17.78-.001-6.259-1.079-15.07-6.222-21.437zm-2.799 35.823c-.075.09-.171.16-.251.243.154-1.501.211-3.01.171-4.518 0-.457-.012-.915-.012-1.378.009-.67-.515-1.229-1.19-1.271h-2.046c-.24 0-.679.031-.945.235-.361.276-.393.664-.418.948-1.498 14.73-7.091 26.363-16.631 34.637-.908.772-1.025 2.122-.263 3.036l.371.461c.407.491 1.016.772 1.657.767.516-.007 1.019-.161 1.449-.444 3.338-2.121 6.115-4.812 8.715-8.441.242.269 1.361 1.627 1.361 1.627.379.453.442 1.21.13 1.588-12.464 15.135-29.663 23.508-48.462 23.604-18.799-.095-35.998-8.468-48.462-23.604-.314-.378-.251-1.134.13-1.588 0 0 1.119-1.362 1.361-1.627 2.6 3.631 5.371 6.32 8.715 8.441.469.298 1.95 1.002 3.107-.323l.371-.461c.761-.914.644-2.264-.263-3.036-9.54-8.28-15.133-19.912-16.631-34.637-.026-.284-.059-.673-.418-.948-.265-.204-.705-.235-.945-.235h-2.052c-.675.041-1.199.6-1.19 1.271 0 .461 0 .92-.012 1.378-.041 1.508.016 3.017.171 4.518-.081-.084-.179-.152-.251-.243-2.441-3.892-2.643-9.247-2.643-14.4 0-5.291.844-12.648 4.864-17.614.132-.172.286-.326.46-.457.077-.053.167-.084.247-.132-.796 2.607-1.327 5.287-1.585 8-.049.504-.196 2.035 1.178 2.306l.919.311c.232.048.468.074.705.076 1.221 0 1.561-.804 1.652-1.195 5.62-24.129 26.387-41.002 50.57-41.152 24.182.15 44.949 17.028 50.57 41.152.092.389.43 1.195 1.652 1.195.237-.002.473-.028.705-.076l.919-.311c1.375-.272 1.229-1.802 1.178-2.306-.258-2.712-.789-5.392-1.585-8 .081.049.171.078.247.132.173.131.328.285.46.457 4.02 4.972 4.864 12.323 4.864 17.614.004 5.159-.2 10.508-2.641 14.405v-.005z"/></g></svg>