<svg id="color" enable-background="new 0 0 24 24" height="512" viewBox="0 0 24 24" width="512" xmlns="http://www.w3.org/2000/svg"><path d="m12 8.75c-.553 0-1-.447-1-1v-2.75c0-1.654-1.346-3-3-3s-3 1.346-3 3v2.75c0 .553-.447 1-1 1s-1-.447-1-1v-2.75c0-2.757 2.243-5 5-5s5 2.243 5 5v2.75c0 .553-.447 1-1 1z" fill="#90a4ae"/><path d="m13.75 20h-11.5c-1.24 0-2.25-1.01-2.25-2.25v-8.5c0-1.24 1.01-2.25 2.25-2.25h11.5c1.24 0 2.25 1.01 2.25 2.25v8.5c0 1.24-1.01 2.25-2.25 2.25z" fill="#ffc107"/><path d="m8 0c-2.757 0-5 2.243-5 5v2h2v-2c0-1.654 1.346-3 3-3z" fill="#7d8f97"/><path d="m8 7h-3-2-.75c-1.24 0-2.25 1.01-2.25 2.25v8.5c0 1.24 1.01 2.25 2.25 2.25h5.75z" fill="#dea806"/><path d="m23.227 19.881c-.486-.263-1.093-.082-1.355.402-.575 1.059-1.675 1.717-2.872 1.717-.611 0-1.189-.185-1.696-.493l.477-.477c.214-.214.278-.537.163-.817-.117-.28-.391-.463-.693-.463h-2.5c-.414 0-.75.336-.75.75v2.5c0 .303.183.576.463.693.093.038.19.057.287.057.195 0 .387-.076.53-.22l.573-.573c.898.671 1.998 1.043 3.146 1.043 1.932 0 3.706-1.059 4.629-2.764.264-.486.083-1.092-.402-1.355z" fill="#607d8b"/><path d="m23.537 13.807c-.279-.115-.603-.052-.817.163l-.573.573c-.899-.671-1.998-1.043-3.147-1.043-1.936 0-3.711 1.064-4.631 2.776-.262.487-.079 1.093.407 1.355.151.081.313.119.473.119.356 0 .701-.191.882-.526.571-1.064 1.671-1.724 2.869-1.724.611 0 1.189.185 1.696.493l-.476.477c-.214.214-.278.537-.163.817.117.28.391.463.693.463h2.5c.414 0 .75-.336.75-.75v-2.5c0-.303-.183-.576-.463-.693z" fill="#607d8b"/><g fill="#546d79"><path d="m17.25 19.75h-2.5c-.414 0-.75.336-.75.75v2.5c0 .303.183.576.463.693.093.038.19.057.287.057.195 0 .387-.076.53-.22l.573-.573c.899.671 1.999 1.043 3.147 1.043v-2c-.611 0-1.189-.185-1.696-.493l.477-.477c.214-.214.278-.537.163-.817-.118-.28-.391-.463-.694-.463z"/><path d="m19 13.5c-1.936 0-3.711 1.064-4.631 2.776-.262.487-.079 1.093.407 1.355.151.081.313.119.473.119.356 0 .701-.191.882-.526.571-1.064 1.671-1.724 2.869-1.724z"/></g></svg>